<svg xmlns="http://www.w3.org/2000/svg" xmlns:xlink="http://www.w3.org/1999/xlink" width="370" height="256" viewBox="0 0 370 256">
  <defs>
    <filter id="Rectangle_8648" x="0" y="0" width="370" height="256" filterUnits="userSpaceOnUse">
      <feOffset input="SourceAlpha"/>
      <feGaussianBlur stdDeviation="3" result="blur"/>
      <feFlood flood-opacity="0.161"/>
      <feComposite operator="in" in2="blur"/>
      <feComposite in="SourceGraphic"/>
    </filter>
    <clipPath id="clip-path">
      <rect id="Rectangle_8653" data-name="Rectangle 8653" width="234" height="145" transform="translate(198 874)" fill="#3e3e3e"/>
    </clipPath>
  </defs>
  <g id="buyam-logo-display-3" transform="translate(-130 -818)">
    <g transform="matrix(1, 0, 0, 1, 130, 818)" filter="url(#Rectangle_8648)">
      <rect id="Rectangle_8648-2" data-name="Rectangle 8648" width="352" height="238" rx="4" transform="translate(9 9)" fill="#252525"/>
    </g>
    <g id="Mask_Group_849" data-name="Mask Group 849" clip-path="url(#clip-path)">
      <g id="Buyam_Logo_Buyam_Logo_-_all_transparent_white-redversion" data-name="Buyam Logo_Buyam Logo - all transparent white-redversion" transform="translate(178.388 870.965)">
        <path id="Path_1829" data-name="Path 1829" d="M77.242,83.571a9.337,9.337,0,0,1-2.218,3.223,9.884,9.884,0,0,1-3.559,2.113,14.151,14.151,0,0,1-4.744.748H51.612V53.042H64.865q5.311,0,8.251,2.552a8.535,8.535,0,0,1,2.939,6.781,9.708,9.708,0,0,1-1.134,4.615,8.339,8.339,0,0,1-3.816,3.48,8.788,8.788,0,0,1,5,3.094,9.146,9.146,0,0,1,1.907,5.931,10.5,10.5,0,0,1-.773,4.076Zm-9.128-16.45a4.969,4.969,0,0,0,1.34-3.507,4.411,4.411,0,0,0-1.47-3.533,6.085,6.085,0,0,0-4.1-1.263H58.522v9.743h5.621A5.149,5.149,0,0,0,68.114,67.121ZM65.432,83.932a5.79,5.79,0,0,0,4.1-1.366A4.855,4.855,0,0,0,71,78.827a4.514,4.514,0,0,0-1.392-3.559,5.611,5.611,0,0,0-3.867-1.238H58.522v9.9Z" transform="translate(0 -0.612)" fill="#fff"/>
        <path id="Path_1830" data-name="Path 1830" d="M103.565,82.5a6.849,6.849,0,0,0,1.366,4.615,5.013,5.013,0,0,0,4,1.573,7.076,7.076,0,0,0,3.635-.979,10.6,10.6,0,0,0,2.863-2.424V67.8h6.446V93.944h-6.446v-3.2a12.983,12.983,0,0,1-3.533,2.655,10.578,10.578,0,0,1-4.925,1.058q-4.847,0-7.348-2.888t-2.5-8.147V67.8h6.446Z" transform="translate(-12.769 -4.586)" fill="#fff"/>
        <path id="Path_1831" data-name="Path 1831" d="M151.4,85.714l6.549-17.843h6.7L154.29,94.119a32.825,32.825,0,0,1-2.3,4.9,14.207,14.207,0,0,1-2.707,3.408,9.841,9.841,0,0,1-3.326,1.986,12.3,12.3,0,0,1-4.1.644h-.721L139.9,99.333h.31a9.445,9.445,0,0,0,2.347-.284,5.755,5.755,0,0,0,2.062-1.006,8.584,8.584,0,0,0,1.8-1.934A14.881,14.881,0,0,0,148,93.094l.051-.1L137.17,67.877h7.064Z" transform="translate(-23.987 -4.329)" fill="#fff"/>
        <path id="Path_1832" data-name="Path 1832" d="M206.18,87.01a7.335,7.335,0,0,1-.515-2.793V67.671H199.89l-.206,1.633a14.129,14.129,0,0,0-3.611-1.58,15,15,0,0,0-4.176-.581,14,14,0,0,0-5.415,1.028,12.778,12.778,0,0,0-4.281,2.873,12.915,12.915,0,0,0-2.809,4.453,15.845,15.845,0,0,0-1.006,5.769,16.706,16.706,0,0,0,.9,5.664,12.475,12.475,0,0,0,2.526,4.267,11.084,11.084,0,0,0,3.842,2.713,12.193,12.193,0,0,0,4.849.948,11.577,11.577,0,0,0,5.388-1.292,9.408,9.408,0,0,0,3.944-3.872,8.6,8.6,0,0,0,2.113,3.161A7.7,7.7,0,0,0,205.4,94.7l2.888-5.689A3.885,3.885,0,0,1,206.18,87.01ZM198.8,83.717a7.8,7.8,0,0,1-1.5,2.687,7.17,7.17,0,0,1-2.345,1.791,6.852,6.852,0,0,1-3.016.659,6.51,6.51,0,0,1-5-2.055,7.8,7.8,0,0,1-1.907-5.533,8.493,8.493,0,0,1,2.037-5.9,7.328,7.328,0,0,1,5.75-2.265,12.444,12.444,0,0,1,3.455.474,16.562,16.562,0,0,1,2.99,1.159v5.689a9.494,9.494,0,0,1-.465,3.3Z" transform="translate(-35.519 -4.71)" fill="#fff"/>
        <path id="Path_1833" data-name="Path 1833" d="M197.986,50.935l6.652,8.4h-5.415l-4.331-4.847L190.56,59.34h-5.415l6.652-8.4Z" transform="translate(-37.511)" fill="#e1251b"/>
        <path id="Path_1834" data-name="Path 1834" d="M227.605,67.651H234V70.92a12.646,12.646,0,0,1,3.48-2.741,9.971,9.971,0,0,1,4.822-1.107q5.724,0,7.941,4.64a16.2,16.2,0,0,1,3.944-3.269,10.531,10.531,0,0,1,5.492-1.371q4.487,0,6.781,2.795t2.3,8.063v16.4h-6.4V78.88a6.837,6.837,0,0,0-1.187-4.429,4.305,4.305,0,0,0-3.507-1.423,6.786,6.786,0,0,0-3.507.975,11.377,11.377,0,0,0-2.836,2.347,5.45,5.45,0,0,1,.051.765V94.326h-6.394V78.88a6.837,6.837,0,0,0-1.187-4.429,4.305,4.305,0,0,0-3.506-1.423,6.521,6.521,0,0,0-3.48,1A10.94,10.94,0,0,0,234,76.508V94.326h-6.39Z" transform="translate(-49.143 -4.689)" fill="#fff"/>
      </g>
    </g>
  </g>
</svg>
